<svg xmlns="http://www.w3.org/2000/svg" xmlns:xlink="http://www.w3.org/1999/xlink" width="500" zoomAndPan="magnify" viewBox="0 0 375 374.999991" height="500" preserveAspectRatio="xMidYMid meet" version="1.0"><defs><g/><clipPath id="b645e36635"><path d="M 124 88 L 238 88 L 238 237.300781 L 124 237.300781 Z M 124 88 " clip-rule="nonzero"/></clipPath><clipPath id="b93126405c"><path d="M 101 59.550781 L 274 59.550781 L 274 172 L 101 172 Z M 101 59.550781 " clip-rule="nonzero"/></clipPath><clipPath id="8fe5c506e5"><path d="M 101 59.550781 L 274 59.550781 L 274 173 L 101 173 Z M 101 59.550781 " clip-rule="nonzero"/></clipPath></defs><rect x="-37.5" width="450" fill="#ffffff" y="-37.499999" height="449.999989" fill-opacity="1"/><rect x="-37.5" width="450" fill="#141414" y="-37.499999" height="449.999989" fill-opacity="1"/><path fill="#0a0b0c" d="M 124.449219 193.558594 C 124.449219 193.558594 132.527344 211.652344 133.917969 222.789062 L 140.320312 190.542969 L 124.449219 193.558594 " fill-opacity="1" fill-rule="nonzero"/><path fill="#ffffff" d="M 131.226562 197.054688 C 130.820312 197.054688 130.347656 197.007812 129.8125 196.898438 C 125.253906 195.984375 114.941406 190.605469 110.640625 183.136719 C 108.558594 179.523438 108.117188 175.859375 109.339844 172.25 C 109.441406 171.761719 112.214844 159.386719 119.003906 155.589844 C 119.0625 155.550781 120.480469 154.773438 122.238281 154.773438 C 124.324219 154.773438 127.046875 155.878906 128.207031 161.132812 L 133.746094 191.386719 C 133.773438 191.457031 134.832031 194.324219 133.695312 195.96875 C 133.195312 196.6875 132.363281 197.054688 131.226562 197.054688 " fill-opacity="1" fill-rule="nonzero"/><path fill="#0a0b0c" d="M 122.238281 154.476562 C 120.402344 154.476562 118.925781 155.289062 118.863281 155.328125 C 111.953125 159.1875 109.152344 171.691406 109.039062 172.222656 C 107.804688 175.847656 108.253906 179.59375 110.378906 183.285156 C 114.734375 190.832031 125.144531 196.265625 129.757812 197.191406 C 130.285156 197.300781 130.78125 197.351562 131.226562 197.351562 C 132.46875 197.351562 133.378906 196.945312 133.9375 196.136719 C 135.164062 194.371094 134.058594 191.359375 134.007812 191.226562 L 128.503906 161.085938 C 127.292969 155.617188 124.429688 154.476562 122.238281 154.476562 M 122.238281 155.070312 C 124.296875 155.070312 126.8125 156.199219 127.917969 161.195312 L 133.449219 191.4375 C 133.449219 191.4375 135.441406 196.753906 131.226562 196.753906 C 130.832031 196.753906 130.386719 196.707031 129.875 196.605469 C 123.914062 195.414062 105.25 185.269531 109.621094 172.351562 C 109.621094 172.351562 112.398438 159.621094 119.148438 155.84375 C 119.148438 155.84375 120.539062 155.070312 122.238281 155.070312 " fill-opacity="1" fill-rule="nonzero"/><path fill="#eeedee" d="M 132.726562 191.238281 C 132.417969 191.144531 132.09375 191.042969 131.761719 190.925781 C 112.597656 184.378906 117.75 166.847656 117.75 166.847656 C 115.167969 167.523438 111.804688 174.539062 111.804688 174.539062 C 115.105469 162.5625 120.140625 159.898438 123.964844 159.898438 C 125.246094 159.898438 126.394531 160.199219 127.296875 160.546875 C 127.519531 164.996094 126.722656 169.84375 126.546875 170.855469 C 125.078125 172.238281 124.359375 173.78125 124.417969 175.449219 C 124.527344 178.503906 127.230469 180.882812 127.738281 181.300781 C 130.027344 184.769531 132.128906 189.773438 132.726562 191.238281 " fill-opacity="1" fill-rule="nonzero"/><path fill="#0a0b0c" d="M 112.597656 171.253906 C 112.597656 171.253906 113.054688 170.007812 113.964844 168.242188 C 114.410156 167.351562 114.992188 166.34375 115.675781 165.292969 C 116.367188 164.253906 117.1875 163.179688 118.15625 162.226562 C 119.113281 161.257812 120.25 160.425781 121.503906 159.917969 C 122.121094 159.65625 122.796875 159.566406 123.414062 159.449219 C 124.039062 159.488281 124.667969 159.445312 125.203125 159.574219 C 125.734375 159.742188 126.21875 159.894531 126.652344 160.03125 C 127.046875 160.21875 127.363281 160.4375 127.640625 160.59375 C 128.1875 160.925781 128.496094 161.109375 128.496094 161.109375 L 127.375 162.503906 C 127.375 162.503906 127.136719 162.332031 126.714844 162.03125 C 126.496094 161.886719 126.25 161.675781 125.945312 161.492188 C 125.617188 161.355469 125.246094 161.210938 124.847656 161.042969 C 124.4375 160.898438 123.96875 160.914062 123.472656 160.824219 C 122.984375 160.882812 122.441406 160.898438 121.902344 161.074219 C 120.832031 161.40625 119.730469 162.054688 118.757812 162.882812 C 117.769531 163.703125 116.894531 164.667969 116.132812 165.628906 C 115.378906 166.59375 114.71875 167.539062 114.207031 168.382812 C 113.160156 170.054688 112.597656 171.253906 112.597656 171.253906 " fill-opacity="1" fill-rule="nonzero"/><path fill="#0a0b0c" d="M 114.285156 181.492188 C 114.285156 181.492188 114.449219 181.800781 114.824219 182.269531 C 115.160156 182.769531 115.777344 183.367188 116.480469 184.109375 C 116.875 184.433594 117.300781 184.785156 117.757812 185.15625 C 118.1875 185.550781 118.699219 185.886719 119.261719 186.199219 C 119.804688 186.527344 120.363281 186.867188 120.933594 187.207031 C 121.546875 187.46875 122.175781 187.726562 122.796875 187.988281 C 123.433594 188.21875 124.015625 188.5625 124.679688 188.691406 C 125.320312 188.851562 125.953125 189.003906 126.570312 189.152344 C 127.183594 189.304688 127.769531 189.445312 128.332031 189.585938 C 128.90625 189.636719 129.457031 189.6875 129.960938 189.730469 C 131.964844 189.910156 133.300781 190.03125 133.300781 190.03125 L 133.191406 191.816406 C 133.191406 191.816406 131.800781 191.578125 129.71875 191.222656 C 129.203125 191.132812 128.640625 191.035156 128.046875 190.929688 C 127.472656 190.738281 126.867188 190.539062 126.242188 190.332031 C 125.617188 190.125 124.972656 189.910156 124.320312 189.691406 C 123.65625 189.503906 123.066406 189.089844 122.429688 188.800781 C 121.8125 188.480469 121.191406 188.160156 120.578125 187.84375 C 120.019531 187.445312 119.46875 187.046875 118.9375 186.664062 C 118.394531 186.300781 117.902344 185.910156 117.488281 185.472656 C 117.058594 185.058594 116.65625 184.667969 116.277344 184.308594 C 115.625 183.488281 115.054688 182.84375 114.765625 182.308594 C 114.421875 181.808594 114.285156 181.492188 114.285156 181.492188 " fill-opacity="1" fill-rule="nonzero"/><path fill="#0a0b0c" d="M 123.347656 165.332031 C 121.585938 165.332031 120.125 166.769531 119.003906 169.589844 C 117.75 172.761719 118.335938 176.503906 120.609375 179.855469 C 122.972656 183.335938 126.75 185.765625 129.804688 185.765625 C 130.015625 185.703125 130.242188 185.753906 130.453125 185.726562 L 127.136719 167.140625 C 126.691406 166.722656 125.101562 165.332031 123.347656 165.332031 Z M 129.804688 186.957031 C 126.324219 186.957031 122.234375 184.371094 119.621094 180.527344 C 117.125 176.84375 116.492188 172.691406 117.902344 169.144531 C 119.21875 165.824219 121.050781 164.144531 123.347656 164.144531 C 125.917969 164.144531 128.03125 166.34375 128.121094 166.4375 L 128.242188 166.5625 L 131.828125 186.660156 L 131.28125 186.789062 C 130.8125 186.898438 130.316406 186.957031 129.804688 186.957031 " fill-opacity="1" fill-rule="nonzero"/><path fill="#ffffff" d="M 187.441406 236.96875 C 186.367188 236.96875 185.183594 236.652344 183.9375 236.027344 C 183.550781 235.917969 139.988281 222.859375 133.15625 191.503906 C 133.148438 191.484375 130.664062 185.164062 127.9375 181.0625 C 127.875 181.03125 124.824219 178.601562 124.714844 175.4375 C 124.660156 173.808594 125.394531 172.296875 126.898438 170.9375 C 126.835938 170.9375 128.359375 162.714844 127.203125 157.304688 C 127.152344 156.730469 122.851562 103.535156 158.402344 90.878906 C 158.519531 90.84375 167.378906 88.636719 178.964844 88.636719 C 192.632812 88.636719 211.550781 91.726562 224.039062 106.464844 C 236.511719 121.175781 240.214844 144.539062 235.050781 175.910156 C 235.027344 176.058594 232.476562 190.765625 229.089844 206.546875 C 229.085938 206.601562 228.066406 214.917969 220.003906 220.066406 C 207.046875 228.324219 190.21875 236.054688 190.054688 236.128906 C 190.082031 236.128906 189.199219 236.96875 187.441406 236.96875 " fill-opacity="1" fill-rule="nonzero"/><g clip-path="url(#b645e36635)"><path fill="#0a0b0c" d="M 178.96875 88.339844 L 178.96875 88.933594 L 178.96875 88.339844 L 178.964844 88.339844 C 167.34375 88.339844 158.449219 90.558594 158.359375 90.582031 C 122.539062 103.328125 126.851562 156.753906 126.902344 157.292969 C 127.964844 162.28125 126.769531 169.585938 126.546875 170.855469 C 125.078125 172.238281 124.359375 173.78125 124.417969 175.449219 C 124.527344 178.503906 127.230469 180.882812 127.738281 181.300781 C 130.429688 185.382812 132.871094 191.59375 132.894531 191.65625 C 139.734375 223.09375 183.464844 236.207031 183.90625 236.332031 C 185.097656 236.941406 186.320312 237.269531 187.441406 237.269531 C 189.03125 237.269531 189.972656 236.609375 190.253906 236.363281 C 191.535156 235.773438 207.648438 228.289062 220.160156 220.3125 C 228.347656 215.097656 229.351562 206.894531 229.390625 206.546875 C 232.773438 190.824219 235.320312 176.113281 235.34375 175.964844 C 240.527344 144.5 236.796875 121.054688 224.269531 106.273438 C 211.703125 91.449219 192.699219 88.339844 178.96875 88.339844 M 178.964844 88.933594 C 205.542969 88.933594 247.171875 100.445312 234.757812 175.859375 C 234.757812 175.859375 232.226562 190.527344 228.800781 206.480469 C 228.800781 206.480469 227.882812 214.6875 219.84375 219.816406 C 206.753906 228.15625 189.929688 235.859375 189.929688 235.859375 C 189.929688 235.859375 189.117188 236.671875 187.441406 236.671875 C 186.5625 236.671875 185.441406 236.441406 184.070312 235.761719 C 184.070312 235.761719 140.320312 222.984375 133.449219 191.4375 C 133.449219 191.4375 130.964844 185.074219 128.1875 180.894531 C 128.1875 180.894531 121.832031 175.910156 127.097656 171.160156 C 127.097656 171.160156 128.683594 162.804688 127.496094 157.238281 C 127.496094 157.238281 122.757812 103.882812 158.503906 91.160156 C 158.503906 91.160156 167.285156 88.933594 178.964844 88.933594 " fill-opacity="1" fill-rule="nonzero"/></g><path fill="#eeedee" d="M 230.988281 171.050781 C 231.113281 170.214844 231.167969 169.410156 231.136719 168.652344 L 227.730469 165.066406 C 227.726562 165.066406 227.726562 165.0625 227.726562 165.0625 L 226.769531 164.058594 C 226.769531 164.058594 223.171875 161.984375 218.234375 161.984375 C 215.476562 161.984375 212.300781 162.632812 209.101562 164.648438 C 209.101562 164.660156 209.09375 165.210938 209.097656 166.125 L 208.71875 161.683594 C 207.109375 159.667969 207.796875 155.9375 207.796875 155.9375 L 214.226562 155.9375 L 229.996094 151.023438 L 226.007812 159.035156 C 233.644531 163.757812 233.179688 168.039062 230.988281 171.050781 " fill-opacity="1" fill-rule="nonzero"/><path fill="#eeedee" d="M 175 182.367188 L 174.402344 182.367188 C 175.203125 181.386719 175.917969 180.074219 176.550781 178.589844 C 175.648438 180.847656 175 182.367188 175 182.367188 M 155.574219 182.367188 L 154.324219 182.367188 L 151.515625 160.609375 C 152.507812 156.621094 158.683594 148.789062 158.683594 148.789062 C 155.367188 144.84375 146.945312 144.476562 146.945312 144.476562 L 155.910156 141.929688 L 170.027344 146.40625 L 181.371094 153.863281 L 190.074219 153.414062 C 188.441406 158.769531 182.183594 160.609375 182.183594 160.609375 C 182.207031 163.707031 179.191406 171.902344 177.0625 177.308594 C 178.488281 173.480469 179.425781 168.886719 179.957031 165.785156 C 180.0625 165.167969 180.152344 164.609375 180.222656 164.128906 C 180.222656 164.128906 180.222656 164.125 180.222656 164.125 C 180.402344 162.957031 180.484375 162.25 180.484375 162.25 C 175.644531 156.699219 170.238281 155.582031 166.671875 155.582031 C 164.277344 155.582031 162.714844 156.085938 162.714844 156.085938 L 153.828125 160.261719 C 152.003906 174.550781 155.105469 182.175781 155.105469 182.175781 C 155.257812 182.242188 155.417969 182.304688 155.574219 182.367188 M 168.328125 152.714844 C 168.40625 152.714844 168.484375 152.714844 168.5625 152.71875 L 169.996094 152.914062 C 170.964844 152.972656 171.847656 153.355469 172.742188 153.582031 C 173.632812 153.816406 174.402344 154.316406 175.199219 154.636719 C 176.007812 154.945312 176.625 155.507812 177.285156 155.882812 C 177.910156 156.308594 178.546875 156.636719 178.996094 157.066406 C 179.476562 157.46875 179.898438 157.820312 180.246094 158.105469 C 180.945312 158.683594 181.371094 159.003906 181.371094 159.003906 C 181.371094 159.003906 181.0625 158.585938 180.496094 157.871094 C 180.207031 157.507812 179.855469 157.078125 179.449219 156.578125 C 179.074219 156.042969 178.507812 155.59375 177.90625 155.066406 C 177.285156 154.574219 176.707031 153.890625 175.871094 153.484375 C 175.054688 153.050781 174.273438 152.421875 173.296875 152.109375 C 172.332031 151.808594 171.375 151.289062 170.285156 151.214844 L 168.679688 150.960938 C 168.445312 150.953125 168.210938 150.945312 167.972656 150.945312 C 167.664062 150.945312 167.355469 150.953125 167.046875 150.953125 C 166.972656 150.953125 166.902344 150.949219 166.832031 150.949219 C 165.808594 150.949219 164.816406 151.210938 163.828125 151.347656 C 162.804688 151.632812 161.789062 151.910156 160.871094 152.324219 C 159.941406 152.703125 159.074219 153.140625 158.296875 153.621094 C 157.484375 154.046875 156.808594 154.59375 156.15625 155.039062 C 153.644531 156.988281 152.394531 158.6875 152.394531 158.6875 C 152.394531 158.6875 152.8125 158.371094 153.554688 157.855469 C 154.277344 157.316406 155.398438 156.664062 156.71875 155.898438 C 157.402344 155.5625 158.113281 155.132812 158.910156 154.800781 C 159.695312 154.417969 160.546875 154.109375 161.429688 153.792969 C 162.300781 153.449219 163.257812 153.292969 164.191406 153.039062 C 165.046875 152.941406 165.90625 152.730469 166.777344 152.730469 C 166.886719 152.730469 166.992188 152.734375 167.097656 152.738281 C 167.507812 152.738281 167.917969 152.714844 168.328125 152.714844 " fill-opacity="1" fill-rule="nonzero"/><path fill="#0a0b0c" d="M 152.394531 158.6875 C 152.394531 158.6875 153.644531 156.988281 156.15625 155.039062 C 156.808594 154.59375 157.484375 154.046875 158.296875 153.621094 C 159.074219 153.140625 159.941406 152.703125 160.871094 152.324219 C 161.789062 151.910156 162.804688 151.632812 163.828125 151.347656 C 164.882812 151.203125 165.945312 150.910156 167.046875 150.953125 C 167.589844 150.953125 168.140625 150.933594 168.679688 150.960938 L 170.285156 151.214844 C 171.375 151.289062 172.332031 151.808594 173.296875 152.109375 C 174.273438 152.421875 175.054688 153.050781 175.871094 153.484375 C 176.707031 153.890625 177.285156 154.574219 177.90625 155.066406 C 178.507812 155.59375 179.074219 156.042969 179.449219 156.578125 C 179.855469 157.078125 180.207031 157.507812 180.496094 157.871094 C 181.0625 158.585938 181.371094 159.003906 181.371094 159.003906 C 181.371094 159.003906 180.945312 158.683594 180.246094 158.105469 C 179.898438 157.820312 179.476562 157.46875 178.996094 157.066406 C 178.546875 156.636719 177.910156 156.308594 177.285156 155.882812 C 176.625 155.507812 176.007812 154.945312 175.199219 154.636719 C 174.402344 154.316406 173.632812 153.816406 172.742188 153.582031 C 171.847656 153.355469 170.964844 152.972656 169.996094 152.914062 L 168.5625 152.71875 C 168.078125 152.703125 167.585938 152.738281 167.097656 152.738281 C 166.117188 152.675781 165.152344 152.929688 164.191406 153.039062 C 163.257812 153.292969 162.300781 153.449219 161.429688 153.792969 C 160.546875 154.109375 159.695312 154.417969 158.910156 154.800781 C 158.113281 155.132812 157.402344 155.5625 156.71875 155.898438 C 155.398438 156.664062 154.277344 157.316406 153.554688 157.855469 C 152.8125 158.371094 152.394531 158.6875 152.394531 158.6875 " fill-opacity="1" fill-rule="nonzero"/><path fill="#ffffff" d="M 180.484375 162.25 C 180.484375 162.25 178.46875 179.246094 173.460938 183.320312 C 173.460938 183.320312 162.945312 185.542969 155.105469 182.175781 C 155.105469 182.175781 152.003906 174.550781 153.828125 160.261719 L 162.714844 156.085938 C 162.714844 156.085938 172.394531 152.972656 180.484375 162.25 " fill-opacity="1" fill-rule="nonzero"/><path fill="#c5c4c4" d="M 179.957031 165.785156 C 180.0625 165.167969 180.148438 164.605469 180.222656 164.125 C 180.222656 164.125 180.222656 164.128906 180.222656 164.128906 C 180.152344 164.609375 180.0625 165.167969 179.957031 165.785156 " fill-opacity="1" fill-rule="nonzero"/><path fill="#d3d2d2" d="M 178.722656 171.78125 C 177.605469 171.402344 176.054688 170.910156 174.265625 170.367188 C 173.871094 164.648438 170.535156 159.761719 165.953125 158.765625 C 165.394531 158.644531 164.839844 158.585938 164.292969 158.585938 C 160.46875 158.585938 157 161.4375 155.347656 165.804688 C 155.074219 165.785156 154.824219 165.773438 154.601562 165.773438 C 154.316406 165.773438 154.070312 165.792969 153.878906 165.832031 C 153.902344 165.257812 153.800781 163.546875 153.847656 162.945312 C 154.183594 161.609375 155.914062 160.859375 156.300781 159.746094 L 161.308594 156.890625 C 161.78125 156.867188 162.273438 156.859375 162.777344 156.859375 C 167.203125 156.859375 172.65625 157.636719 177.5 159.410156 C 177.855469 159.683594 178.203125 159.972656 178.550781 160.289062 C 178.617188 160.347656 178.6875 160.410156 178.75 160.464844 C 178.902344 160.609375 179.054688 160.757812 179.214844 160.90625 C 179.273438 160.96875 179.335938 161.03125 179.394531 161.085938 C 179.558594 161.253906 179.714844 161.414062 179.878906 161.582031 L 179.886719 161.59375 C 179.691406 161.984375 179.523438 162.390625 179.867188 162.796875 C 179.867188 162.796875 180.050781 163.296875 180.222656 164.125 C 180.148438 164.605469 180.0625 165.167969 179.957031 165.785156 C 179.667969 167.464844 179.261719 169.582031 178.722656 171.78125 " fill-opacity="1" fill-rule="nonzero"/><path fill="#0a0b0c" d="M 157.558594 181.023438 C 155.132812 178.183594 153.890625 173.847656 154.460938 169.382812 C 155.371094 162.335938 160.511719 157.585938 165.953125 158.765625 C 171.394531 159.949219 175.074219 166.609375 174.164062 173.648438 C 173.578125 178.234375 170.855469 182.105469 167.761719 183.742188 C 167.761719 183.742188 160.550781 184.535156 157.558594 181.023438 " fill-opacity="1" fill-rule="nonzero"/><path fill="#0a0b0c" d="M 158.726562 171.023438 C 158.371094 173.753906 160.152344 176.414062 162.703125 176.96875 C 165.246094 177.519531 167.59375 175.753906 167.945312 173.023438 C 168.296875 170.292969 166.515625 167.632812 163.972656 167.082031 C 161.425781 166.527344 159.074219 168.296875 158.726562 171.023438 " fill-opacity="1" fill-rule="nonzero"/><path fill="#ffffff" d="M 164.378906 159.617188 C 164.378906 159.617188 170.433594 159.589844 172.59375 167.054688 C 172.59375 167.054688 173.601562 172.636719 163.085938 169.609375 C 163.085938 169.609375 153.824219 166.261719 160.011719 161.199219 C 160.011719 161.199219 162.40625 159.253906 164.378906 159.617188 " fill-opacity="1" fill-rule="nonzero"/><path fill="#333136" d="M 164.496094 182.882812 C 162.242188 182.882812 159.527344 181.667969 156.53125 177.910156 C 156.53125 177.910156 155.226562 175.410156 156.390625 175.410156 C 156.855469 175.410156 157.699219 175.800781 159.167969 176.894531 C 161.175781 178.390625 163.378906 178.804688 165.15625 178.804688 C 166.742188 178.804688 167.988281 178.476562 168.460938 178.292969 C 169.085938 178.050781 169.84375 177.828125 170.410156 177.828125 C 171.023438 177.828125 171.410156 178.089844 171.171875 178.878906 C 171.171875 178.878906 168.59375 182.882812 164.496094 182.882812 " fill-opacity="1" fill-rule="nonzero"/><path fill="#0a0b0c" d="M 151.949219 164.210938 C 149.617188 162.300781 146.945312 162.21875 146.945312 162.21875 C 150.105469 160.851562 154.480469 156.960938 154.480469 156.960938 C 170.992188 147.308594 181.363281 163.292969 181.363281 163.292969 L 180.28125 166.6875 C 171.101562 155.078125 157.917969 158.675781 154.863281 162.113281 C 154.398438 163.207031 153.65625 166.488281 153.257812 169.511719 C 153.257812 169.511719 152.785156 166.566406 151.949219 164.210938 " fill-opacity="1" fill-rule="nonzero"/><path fill="#0a0b0c" d="M 176.964844 182.683594 C 176.964844 182.683594 175.675781 183.117188 173.671875 183.507812 C 172.679688 183.726562 171.496094 183.878906 170.230469 184.050781 C 169.597656 184.148438 168.933594 184.148438 168.269531 184.203125 C 167.597656 184.234375 166.921875 184.304688 166.238281 184.3125 C 165.554688 184.285156 164.875 184.257812 164.199219 184.230469 C 163.539062 184.191406 162.871094 184.21875 162.242188 184.089844 C 161.609375 183.984375 160.996094 183.882812 160.421875 183.789062 C 159.847656 183.671875 159.285156 183.652344 158.804688 183.464844 C 156.875 182.804688 155.585938 182.367188 155.585938 182.367188 C 155.585938 182.367188 156.898438 182.710938 158.863281 183.21875 C 159.34375 183.378906 159.90625 183.375 160.476562 183.46875 C 161.046875 183.542969 161.652344 183.621094 162.277344 183.699219 C 162.902344 183.820312 163.558594 183.785156 164.222656 183.816406 C 164.882812 183.828125 165.558594 183.847656 166.230469 183.867188 C 166.90625 183.867188 167.582031 183.8125 168.246094 183.785156 C 168.90625 183.742188 169.5625 183.757812 170.191406 183.664062 C 171.445312 183.511719 172.632812 183.445312 173.628906 183.257812 C 175.644531 182.996094 176.964844 182.683594 176.964844 182.683594 " fill-opacity="1" fill-rule="nonzero"/><path fill="#0a0b0c" d="M 149.535156 164.609375 C 149.535156 164.609375 151.996094 165.289062 152.664062 164.289062 L 153.433594 167.503906 L 149.535156 164.609375 " fill-opacity="1" fill-rule="nonzero"/><path fill="#0a0b0c" d="M 234.335938 167.484375 C 234.335938 167.484375 234.089844 167.09375 233.601562 166.460938 C 233.148438 165.808594 232.40625 164.945312 231.46875 163.992188 C 231.011719 163.5 230.472656 163.027344 229.898438 162.53125 C 229.332031 162.039062 228.667969 161.589844 228.003906 161.121094 C 227.308594 160.695312 226.589844 160.253906 225.804688 159.929688 C 225.058594 159.519531 224.21875 159.304688 223.402344 159.046875 C 222.582031 158.785156 221.714844 158.710938 220.890625 158.53125 C 220.035156 158.496094 219.195312 158.453125 218.382812 158.417969 C 217.5625 158.5 216.765625 158.546875 216.007812 158.589844 C 215.253906 158.726562 214.539062 158.851562 213.882812 158.960938 C 212.539062 159.136719 211.480469 159.546875 210.695312 159.730469 C 209.921875 159.933594 209.464844 160.03125 209.464844 160.03125 C 209.464844 160.03125 209.851562 159.792969 210.5625 159.410156 C 211.292969 159.082031 212.253906 158.359375 213.605469 157.976562 C 214.269531 157.753906 214.984375 157.472656 215.765625 157.277344 C 216.570312 157.140625 217.414062 156.996094 218.289062 156.847656 C 219.175781 156.796875 220.113281 156.796875 221.054688 156.8125 C 221.980469 156.980469 222.957031 157.050781 223.878906 157.328125 C 224.796875 157.632812 225.722656 157.90625 226.554688 158.375 C 227.433594 158.75 228.175781 159.328125 228.914062 159.835938 C 230.3125 160.953125 231.472656 162.160156 232.253906 163.335938 C 233.085938 164.476562 233.578125 165.550781 233.90625 166.285156 C 234.234375 167.03125 234.335938 167.484375 234.335938 167.484375 " fill-opacity="1" fill-rule="nonzero"/><path fill="#ffffff" d="M 209.101562 164.648438 C 209.101562 164.648438 208.929688 180.082031 210.957031 183.785156 C 210.957031 183.785156 217.292969 186.496094 224.765625 186.15625 C 224.765625 186.15625 231.421875 175.402344 231.136719 168.652344 L 226.769531 164.058594 C 226.769531 164.058594 218.03125 159.019531 209.101562 164.648438 " fill-opacity="1" fill-rule="nonzero"/><path fill="#d3d2d2" d="M 209.269531 172.925781 C 209.136719 170.207031 209.105469 167.65625 209.097656 166.125 L 209.097656 166.132812 C 209.105469 167.664062 209.136719 170.210938 209.273438 172.925781 C 209.273438 172.925781 209.273438 172.925781 209.269531 172.925781 " fill-opacity="1" fill-rule="nonzero"/><path fill="#c5c4c4" d="M 231.136719 168.652344 L 227.726562 165.0625 C 227.726562 165.0625 227.726562 165.066406 227.730469 165.066406 L 231.136719 168.652344 M 209.097656 166.132812 L 209.097656 166.125 C 209.09375 165.210938 209.101562 164.660156 209.101562 164.648438 C 209.101562 164.660156 209.09375 165.210938 209.097656 166.132812 " fill-opacity="1" fill-rule="nonzero"/><path fill="#d3d2d2" d="M 230.496094 173.40625 C 229.707031 172.871094 227.265625 172.632812 224.28125 172.550781 C 223.796875 168.417969 221.582031 165.242188 218.585938 164.890625 C 218.398438 164.867188 218.214844 164.855469 218.03125 164.855469 C 214.792969 164.855469 211.78125 168.203125 210.726562 172.847656 C 210.148438 172.875 209.652344 172.90625 209.273438 172.925781 C 209.136719 170.210938 209.105469 167.664062 209.097656 166.132812 C 209.09375 165.210938 209.101562 164.660156 209.101562 164.648438 C 209.921875 164.128906 210.746094 163.703125 211.558594 163.347656 C 212.890625 163.164062 214.265625 163.078125 215.652344 163.078125 C 220.003906 163.078125 224.417969 163.917969 227.726562 165.0625 L 231.136719 168.652344 C 231.195312 170.101562 230.9375 171.734375 230.496094 173.40625 " fill-opacity="1" fill-rule="nonzero"/><path fill="#0a0b0c" d="M 220.109375 184.464844 C 222.230469 182.847656 223.839844 179.765625 224.269531 176.117188 C 224.945312 170.367188 222.398438 165.339844 218.585938 164.890625 C 214.769531 164.4375 211.128906 168.734375 210.449219 174.484375 C 210.003906 178.226562 211.101562 181.949219 212.859375 184.011719 C 212.859375 184.011719 217.480469 186.460938 220.109375 184.464844 " fill-opacity="1" fill-rule="nonzero"/><path fill="#0a0b0c" d="M 220.324219 176.296875 C 220.058594 178.523438 218.402344 180.164062 216.613281 179.953125 C 214.832031 179.738281 213.59375 177.761719 213.855469 175.53125 C 214.121094 173.300781 215.777344 171.667969 217.566406 171.878906 C 219.359375 172.085938 220.589844 174.066406 220.324219 176.296875 " fill-opacity="1" fill-rule="nonzero"/><path fill="#ffffff" d="M 219.472656 165.957031 C 219.472656 165.957031 215.464844 164.398438 212.683594 169.707031 C 212.683594 169.707031 211 173.832031 218.515625 174.121094 C 218.515625 174.121094 225.253906 173.835938 222.074219 168.300781 C 222.074219 168.300781 220.84375 166.167969 219.472656 165.957031 " fill-opacity="1" fill-rule="nonzero"/><path fill="#333136" d="M 216.589844 184.425781 C 212.796875 184.425781 211.480469 179.34375 211.480469 179.34375 C 211.464844 178.835938 211.636719 178.648438 211.886719 178.648438 C 212.289062 178.648438 212.910156 179.125 213.382812 179.566406 C 213.835938 179.992188 215.566406 181.234375 217.710938 181.234375 C 218.371094 181.234375 219.074219 181.117188 219.789062 180.820312 C 220.667969 180.453125 221.242188 180.308594 221.605469 180.308594 C 222.941406 180.308594 221.351562 182.277344 221.351562 182.277344 C 219.449219 183.839844 217.878906 184.425781 216.589844 184.425781 " fill-opacity="1" fill-rule="nonzero"/><path fill="#0a0b0c" d="M 233.167969 170.308594 C 235.554688 169.320312 239.003906 167.957031 239.003906 167.957031 C 237.1875 168.136719 234.472656 166.769531 234.472656 166.769531 C 223.046875 154.984375 208.71875 163.722656 208.71875 163.722656 L 209.113281 167.988281 C 219.523438 160.722656 227.410156 167.257812 230.085938 170.082031 C 230.191406 171.097656 230.265625 172.925781 229.851562 175.515625 C 229.851562 175.515625 231.894531 172.039062 233.167969 170.308594 " fill-opacity="1" fill-rule="nonzero"/><path fill="#0a0b0c" d="M 210.957031 183.785156 C 210.957031 183.785156 211.765625 184.164062 213.023438 184.578125 C 214.285156 184.957031 215.980469 185.464844 217.730469 185.679688 C 218.59375 185.847656 219.464844 185.953125 220.292969 185.992188 C 221.113281 186.054688 221.882812 186.152344 222.542969 186.113281 C 223.875 186.136719 224.765625 186.15625 224.765625 186.15625 C 224.765625 186.15625 223.878906 186.238281 222.546875 186.363281 C 221.882812 186.441406 221.101562 186.425781 220.265625 186.378906 C 219.429688 186.359375 218.539062 186.277344 217.65625 186.121094 C 216.765625 186.003906 215.90625 185.773438 215.09375 185.558594 C 214.28125 185.363281 213.566406 185.039062 212.933594 184.816406 C 211.703125 184.28125 210.957031 183.785156 210.957031 183.785156 " fill-opacity="1" fill-rule="nonzero"/><path fill="#0a0b0c" d="M 205.414062 193.558594 C 205.414062 193.558594 209.097656 197.636719 203.429688 198.726562 C 203.429688 198.726562 205.210938 196.339844 205.414062 193.558594 " fill-opacity="1" fill-rule="nonzero"/><path fill="#a7a5a6" d="M 212.523438 187.691406 C 212.523438 187.691406 212.671875 187.875 212.863281 188.167969 C 213.039062 188.464844 213.269531 188.867188 213.507812 189.261719 C 213.699219 189.6875 213.890625 190.109375 214.035156 190.421875 C 214.164062 190.75 214.226562 190.972656 214.226562 190.972656 C 214.226562 190.972656 214.082031 190.789062 213.890625 190.492188 C 213.714844 190.195312 213.476562 189.796875 213.246094 189.402344 C 213.054688 188.976562 212.863281 188.554688 212.71875 188.242188 C 212.585938 187.917969 212.523438 187.691406 212.523438 187.691406 " fill-opacity="1" fill-rule="nonzero"/><path fill="#a7a5a6" d="M 213.375 188.214844 C 213.375 188.214844 213.582031 188.355469 213.867188 188.585938 C 214.140625 188.835938 214.507812 189.15625 214.875 189.488281 C 215.203125 189.851562 215.535156 190.210938 215.78125 190.484375 C 216.023438 190.765625 216.164062 190.972656 216.164062 190.972656 C 216.164062 190.972656 215.953125 190.832031 215.671875 190.597656 C 215.394531 190.355469 215.03125 190.027344 214.664062 189.699219 C 214.332031 189.339844 214.003906 188.972656 213.753906 188.707031 C 213.519531 188.421875 213.375 188.214844 213.375 188.214844 " fill-opacity="1" fill-rule="nonzero"/><path fill="#a7a5a6" d="M 215.265625 188.960938 C 215.265625 188.960938 215.488281 189.078125 215.789062 189.28125 C 216.082031 189.496094 216.476562 189.789062 216.867188 190.078125 C 217.226562 190.402344 217.585938 190.730469 217.855469 190.972656 C 218.117188 191.226562 218.273438 191.417969 218.273438 191.417969 C 218.273438 191.417969 218.058594 191.300781 217.753906 191.097656 C 217.460938 190.882812 217.066406 190.59375 216.675781 190.308594 C 216.316406 189.976562 215.960938 189.652344 215.691406 189.40625 C 215.425781 189.148438 215.265625 188.960938 215.265625 188.960938 " fill-opacity="1" fill-rule="nonzero"/><path fill="#a7a5a6" d="M 217.246094 189.332031 C 217.246094 189.332031 217.511719 189.445312 217.894531 189.644531 C 218.273438 189.855469 218.777344 190.132812 219.277344 190.417969 C 219.753906 190.742188 220.230469 191.066406 220.582031 191.308594 C 220.933594 191.566406 221.152344 191.753906 221.152344 191.753906 C 221.152344 191.753906 220.886719 191.640625 220.503906 191.445312 C 220.125 191.234375 219.621094 190.953125 219.117188 190.667969 C 218.644531 190.347656 218.171875 190.023438 217.808594 189.78125 C 217.464844 189.523438 217.246094 189.332031 217.246094 189.332031 " fill-opacity="1" fill-rule="nonzero"/><path fill="#0a0b0c" d="M 232.324219 169.929688 C 232.324219 169.929688 233.289062 170.542969 234.929688 170.914062 C 234.929688 170.914062 232.503906 172.332031 231.144531 172.332031 L 232.324219 169.929688 " fill-opacity="1" fill-rule="nonzero"/><path fill="#a7a5a6" d="M 168.328125 186.125 C 168.328125 186.125 168.476562 186.3125 168.664062 186.601562 C 168.839844 186.898438 169.074219 187.300781 169.3125 187.695312 C 169.5 188.117188 169.691406 188.542969 169.832031 188.859375 C 169.960938 189.179688 170.027344 189.40625 170.027344 189.40625 C 170.027344 189.40625 169.878906 189.222656 169.691406 188.929688 C 169.511719 188.632812 169.28125 188.230469 169.046875 187.835938 C 168.859375 187.414062 168.664062 186.988281 168.519531 186.671875 C 168.394531 186.351562 168.328125 186.125 168.328125 186.125 " fill-opacity="1" fill-rule="nonzero"/><path fill="#a7a5a6" d="M 166.859375 186.386719 C 166.859375 186.386719 167.007812 186.605469 167.203125 186.949219 C 167.382812 187.296875 167.625 187.761719 167.863281 188.226562 C 168.0625 188.710938 168.253906 189.199219 168.402344 189.5625 C 168.539062 189.933594 168.605469 190.191406 168.605469 190.191406 C 168.605469 190.191406 168.453125 189.972656 168.257812 189.632812 C 168.078125 189.28125 167.835938 188.816406 167.59375 188.347656 C 167.402344 187.867188 167.203125 187.378906 167.054688 187.015625 C 166.925781 186.644531 166.859375 186.386719 166.859375 186.386719 " fill-opacity="1" fill-rule="nonzero"/><path fill="#a7a5a6" d="M 165.988281 186.648438 C 165.988281 186.648438 166.058594 186.84375 166.132812 187.136719 C 166.191406 187.441406 166.269531 187.835938 166.351562 188.230469 C 166.382812 188.636719 166.410156 189.039062 166.433594 189.34375 C 166.441406 189.648438 166.421875 189.855469 166.421875 189.855469 C 166.421875 189.855469 166.34375 189.664062 166.273438 189.367188 C 166.214844 189.066406 166.132812 188.667969 166.054688 188.269531 C 166.027344 187.867188 165.996094 187.460938 165.972656 187.160156 C 165.96875 186.855469 165.988281 186.648438 165.988281 186.648438 " fill-opacity="1" fill-rule="nonzero"/><path fill="#a7a5a6" d="M 169.171875 186.648438 C 169.171875 186.648438 169.378906 186.785156 169.667969 187.019531 C 169.941406 187.269531 170.304688 187.597656 170.671875 187.921875 C 171.007812 188.285156 171.335938 188.644531 171.585938 188.921875 C 171.824219 189.199219 171.960938 189.40625 171.960938 189.40625 C 171.960938 189.40625 171.757812 189.265625 171.472656 189.03125 C 171.195312 188.789062 170.832031 188.460938 170.46875 188.132812 C 170.136719 187.773438 169.800781 187.40625 169.554688 187.136719 C 169.316406 186.855469 169.171875 186.648438 169.171875 186.648438 " fill-opacity="1" fill-rule="nonzero"/><path fill="#a7a5a6" d="M 171.070312 187.394531 C 171.070312 187.394531 171.289062 187.511719 171.589844 187.710938 C 171.882812 187.929688 172.277344 188.222656 172.667969 188.511719 C 173.03125 188.835938 173.386719 189.160156 173.65625 189.410156 C 173.917969 189.664062 174.074219 189.855469 174.074219 189.855469 C 174.074219 189.855469 173.859375 189.738281 173.554688 189.53125 C 173.261719 189.316406 172.871094 189.027344 172.480469 188.738281 C 172.121094 188.414062 171.761719 188.082031 171.492188 187.839844 C 171.230469 187.582031 171.070312 187.394531 171.070312 187.394531 " fill-opacity="1" fill-rule="nonzero"/><path fill="#a7a5a6" d="M 173.042969 187.769531 C 173.042969 187.769531 173.3125 187.875 173.691406 188.078125 C 174.070312 188.289062 174.574219 188.570312 175.078125 188.851562 C 175.554688 189.175781 176.027344 189.5 176.386719 189.746094 C 176.738281 190 176.953125 190.191406 176.953125 190.191406 C 176.953125 190.191406 176.683594 190.078125 176.300781 189.878906 C 175.921875 189.664062 175.425781 189.386719 174.917969 189.105469 C 174.445312 188.78125 173.96875 188.457031 173.613281 188.214844 C 173.261719 187.957031 173.042969 187.769531 173.042969 187.769531 " fill-opacity="1" fill-rule="nonzero"/><path fill="#0a0b0c" d="M 186.15625 155.800781 C 186.15625 155.800781 177.300781 157.523438 168.726562 148.910156 C 168.726562 148.910156 157.609375 143.542969 151.230469 144.289062 C 151.230469 144.289062 144.472656 145.207031 142.089844 146.851562 C 142.089844 146.851562 147.597656 139.84375 151.515625 139.398438 C 151.515625 139.398438 163.375 139.652344 173.65625 145.917969 C 173.65625 145.917969 184.816406 152.789062 192.863281 150.257812 C 192.863281 150.257812 192.261719 153.863281 186.15625 155.800781 " fill-opacity="1" fill-rule="nonzero"/><path fill="#0a0b0c" d="M 186.355469 156.863281 C 186.355469 156.863281 186.542969 156.789062 186.875 156.671875 C 187.203125 156.578125 187.648438 156.363281 188.191406 156.152344 C 188.742188 155.980469 189.3125 155.59375 189.96875 155.332031 C 190.550781 154.929688 191.273438 154.65625 191.84375 154.175781 C 192.441406 153.730469 193.09375 153.347656 193.5625 152.820312 C 193.8125 152.570312 194.078125 152.347656 194.320312 152.132812 C 194.59375 151.929688 194.777344 151.6875 194.945312 151.453125 C 195.648438 150.554688 196.230469 149.953125 196.230469 149.953125 C 196.230469 149.953125 196.003906 150.710938 195.496094 151.828125 C 195.28125 152.421875 194.785156 152.945312 194.3125 153.554688 C 194.058594 153.84375 193.832031 154.195312 193.484375 154.414062 L 192.515625 155.164062 C 191.859375 155.667969 191.074219 155.953125 190.390625 156.289062 C 189.652344 156.507812 188.972656 156.722656 188.367188 156.796875 C 187.167969 157 186.355469 156.863281 186.355469 156.863281 " fill-opacity="1" fill-rule="nonzero"/><path fill="#0a0b0c" d="M 207.550781 155.398438 C 207.550781 155.398438 209.097656 159.441406 212.523438 159.003906 C 212.523438 159.003906 228.128906 149.40625 236.976562 153.414062 L 237.011719 150.75 C 237.011719 150.75 232.71875 146.984375 228.101562 148.023438 C 228.101562 148.023438 213.375 155.070312 207.550781 155.398438 " fill-opacity="1" fill-rule="nonzero"/><path fill="#0a0b0c" d="M 203.417969 203.390625 C 203.417969 203.390625 202.488281 203.355469 201.148438 203.199219 C 200.472656 203.121094 199.691406 203.007812 198.863281 202.789062 C 198.03125 202.613281 197.113281 202.554688 196.210938 202.65625 C 195.308594 202.828125 194.402344 202.808594 193.578125 202.96875 C 193.164062 203.046875 192.761719 203.078125 192.382812 203.128906 C 192.003906 203.195312 191.628906 203.171875 191.304688 203.261719 C 190 203.535156 189.050781 203.59375 189.050781 203.59375 L 189.027344 203.519531 C 189.027344 203.519531 189.835938 203.085938 191.164062 202.628906 C 191.824219 202.386719 192.640625 202.332031 193.5 202.199219 C 194.363281 202.109375 195.292969 202.175781 196.210938 202.25 C 196.667969 202.289062 197.128906 202.367188 197.578125 202.386719 C 198.027344 202.410156 198.46875 202.398438 198.902344 202.386719 C 199.765625 202.382812 200.578125 202.402344 201.25 202.59375 C 202.605469 202.855469 203.4375 203.320312 203.4375 203.320312 L 203.417969 203.390625 " fill-opacity="1" fill-rule="nonzero"/><g clip-path="url(#b93126405c)"><path fill="#a7a5a6" d="M 227.164062 171.046875 C 234.085938 148.0625 229.484375 129.855469 227.382812 123.519531 C 230.015625 148.5 217.183594 165.746094 217.046875 165.925781 L 216.550781 165.585938 C 224.378906 152.695312 224.847656 136.648438 224.644531 129.90625 C 220.261719 159.578125 201.753906 167.699219 201.5625 167.78125 L 200.164062 168.363281 L 201.234375 167.292969 C 215.5625 152.933594 218.847656 135.277344 219.601562 127.972656 C 211.332031 158.070312 181.785156 169.675781 181.472656 169.789062 L 180.519531 170.152344 L 181.125 169.332031 C 194.410156 151.40625 199.609375 131.390625 201.183594 123.945312 C 197.441406 132.734375 192.707031 138.757812 184.0625 145.972656 C 175.257812 153.320312 166.601562 164.804688 166.515625 164.917969 L 165.992188 165.613281 L 165.976562 164.742188 C 165.925781 161.542969 174.0625 150.453125 181.921875 140.503906 C 167.296875 153.746094 151.714844 157.117188 151.550781 157.152344 L 149.707031 157.535156 L 151.335938 156.601562 C 160.101562 151.585938 169.5 139.945312 175.546875 131.550781 C 164.214844 144.121094 147.957031 154.6875 145.882812 156.015625 L 145.597656 156.195312 L 145.285156 155.6875 L 145.558594 155.511719 C 152.472656 150.996094 166.773438 131.835938 172.339844 124.175781 C 170.847656 125.261719 169.054688 126.15625 167.085938 127.144531 C 164.339844 128.519531 161.222656 130.082031 158.070312 132.558594 C 151.003906 138.101562 147.265625 149.925781 147.230469 150.046875 L 146.652344 149.898438 C 148.53125 139.875 156.121094 128.953125 159.304688 124.710938 C 148.265625 133.363281 137.65625 145.292969 134.453125 149 L 138.449219 146.953125 L 134.117188 154.648438 L 137.007812 152.71875 L 134.59375 161.484375 L 137.101562 158.347656 L 134.015625 171.390625 L 127.226562 157.371094 C 127.222656 157.371094 125.070312 154.59375 121.960938 154.59375 C 118.984375 154.59375 114.484375 157.199219 109.980469 169.613281 L 109.769531 170.1875 L 109.445312 169.667969 C 109.34375 169.5 98.996094 152.664062 102.058594 129.695312 C 107.316406 90.230469 130.785156 79.460938 131.023438 79.359375 C 145.910156 69.917969 161.5 65.121094 177.324219 65.121094 C 202.695312 65.121094 220.019531 77.675781 220.199219 77.800781 C 221.378906 77.835938 222.679688 77.875 223.945312 77.875 L 223.949219 77.875 C 248.003906 77.875 259.125 61.78125 260.316406 59.933594 L 260.46875 59.6875 L 260.976562 60 L 260.816406 60.253906 C 248.832031 79.265625 240.300781 83.710938 237.808594 84.660156 C 276.050781 103.46875 273.464844 144.457031 273.433594 144.871094 L 272.839844 144.871094 C 270.6875 115.625 251.082031 101.421875 242.683594 96.640625 C 272.527344 119.375 259.265625 162.71875 259.125 163.171875 L 258.648438 164.671875 L 258.542969 163.101562 C 256.765625 136.699219 243.859375 118.304688 237.5625 110.804688 C 251.449219 133.125 244.121094 170.171875 244.039062 170.566406 L 243.449219 170.496094 C 244.398438 147.421875 240.742188 134.847656 239.296875 130.871094 C 238.976562 162.394531 228.097656 171.011719 227.632812 171.371094 L 226.898438 171.921875 L 227.164062 171.046875 " fill-opacity="1" fill-rule="nonzero"/></g><g clip-path="url(#8fe5c506e5)"><path fill="#0a0b0c" d="M 260.21875 59.53125 L 260.0625 59.773438 C 258.871094 61.613281 247.839844 77.582031 223.949219 77.582031 C 222.730469 77.582031 221.480469 77.539062 220.230469 77.453125 C 218.496094 76.238281 201.558594 64.824219 177.324219 64.824219 C 161.441406 64.824219 145.796875 69.636719 130.824219 79.128906 C 130.664062 79.191406 107.042969 90.027344 101.761719 129.660156 C 98.6875 152.726562 109.089844 169.660156 109.195312 169.828125 L 109.84375 170.859375 L 110.261719 169.714844 C 114.707031 157.460938 119.078125 154.890625 121.960938 154.890625 C 124.742188 154.890625 126.714844 157.21875 126.988281 157.558594 L 133.382812 170.765625 L 134.117188 172.277344 L 134.5 170.648438 L 137.085938 159.707031 L 137.695312 157.128906 L 136.042969 159.199219 L 135.261719 160.167969 L 137.082031 153.570312 L 137.503906 152.023438 L 136.179688 152.910156 L 134.984375 153.707031 L 138.21875 147.960938 L 139.195312 146.230469 L 137.429688 147.136719 L 135.699219 148.027344 C 139.515625 143.683594 148.304688 134.066406 157.6875 126.386719 C 154.0625 131.441406 148.035156 140.886719 146.359375 149.847656 L 147.511719 150.136719 C 147.550781 150.019531 151.261719 138.277344 158.25 132.789062 C 161.382812 130.332031 164.484375 128.78125 167.222656 127.410156 C 168.628906 126.703125 169.949219 126.039062 171.136719 125.328125 C 165.011719 133.6875 151.894531 151.011719 145.398438 155.265625 L 145.125 155.4375 L 145.757812 156.449219 L 146.042969 156.265625 C 147.921875 155.0625 161.457031 146.273438 172.425781 135.261719 C 166.519531 143.03125 158.625 152.09375 151.195312 156.347656 L 147.925781 158.214844 L 151.609375 157.441406 C 151.769531 157.410156 165.808594 154.375 179.765625 142.765625 C 170.363281 154.820312 165.640625 162.199219 165.679688 164.746094 L 165.707031 166.488281 L 166.753906 165.097656 C 166.839844 164.980469 175.476562 153.527344 184.257812 146.199219 C 192.03125 139.707031 196.660156 134.183594 200.238281 126.75 C 198.09375 135.644531 192.6875 153.230469 180.890625 169.15625 L 179.675781 170.792969 L 181.582031 170.070312 C 181.878906 169.953125 209.328125 159.183594 218.832031 131.476562 C 217.449219 139.960938 213.328125 154.753906 201.023438 167.082031 L 198.878906 169.230469 L 201.675781 168.054688 C 201.863281 167.972656 219.132812 160.402344 224.378906 133.273438 C 224.273438 141.074219 222.984375 154.414062 216.300781 165.4375 L 217.285156 166.105469 C 217.414062 165.933594 229.371094 149.871094 227.914062 126.296875 C 230.109375 134.214844 232.972656 150.734375 226.878906 170.960938 L 226.351562 172.714844 L 227.808594 171.609375 C 228.273438 171.253906 238.871094 162.859375 239.566406 132.609375 C 241.199219 137.835938 243.996094 150.023438 243.148438 170.480469 L 244.332031 170.628906 C 244.40625 170.25 251.097656 136.4375 239.621094 113.855469 C 246.300781 122.597656 256.667969 139.703125 258.246094 163.121094 L 258.457031 166.265625 L 259.40625 163.261719 C 259.546875 162.824219 271.863281 122.578125 246.160156 99.152344 C 255.519531 105.445312 270.667969 119.445312 272.542969 144.894531 L 273.734375 144.894531 C 273.761719 144.476562 276.332031 103.707031 238.523438 84.683594 C 241.667969 83.269531 249.902344 78.132812 261.070312 60.417969 C 261.183594 60.246094 261.234375 60.152344 261.234375 60.152344 Z M 145.722656 155.761719 C 145.625 155.828125 145.535156 155.886719 145.445312 155.9375 C 145.445312 155.9375 145.539062 155.882812 145.722656 155.761719 M 260.566406 60.097656 C 246.425781 82.53125 237.011719 84.597656 237.011719 84.597656 C 276.214844 103.394531 273.136719 144.847656 273.136719 144.847656 C 270.355469 107.070312 239.003906 94.441406 239.003906 94.441406 C 273.578125 116.472656 258.839844 163.082031 258.839844 163.082031 C 256.453125 127.625 234.335938 106.824219 234.335938 106.824219 C 252.324219 128.457031 243.746094 170.511719 243.746094 170.511719 C 244.933594 141.6875 239.003906 129.339844 239.003906 129.339844 C 239.03125 162.34375 227.449219 171.132812 227.449219 171.132812 C 236.179688 142.140625 226.769531 120.984375 226.769531 120.984375 C 230.636719 147.53125 216.808594 165.746094 216.808594 165.746094 C 227.109375 148.761719 224.765625 126.65625 224.765625 126.65625 C 221.265625 159.167969 201.445312 167.503906 201.445312 167.503906 C 220.210938 148.699219 220.125 124.566406 220.125 124.566406 C 213.175781 157.375 181.371094 169.511719 181.371094 169.511719 C 198.230469 146.757812 202.042969 120.984375 202.042969 120.984375 C 197.871094 132.019531 192.808594 138.285156 183.875 145.742188 C 174.9375 153.199219 166.277344 164.738281 166.277344 164.738281 C 166.21875 161.152344 177.132812 146.914062 184.988281 137.132812 C 187.71875 134.332031 190.382812 131.152344 192.863281 127.546875 C 192.863281 127.546875 189.40625 131.640625 184.988281 137.132812 C 169.402344 153.132812 151.488281 156.863281 151.488281 156.863281 C 162.722656 150.429688 174.820312 133.460938 180.164062 125.382812 C 181.207031 123.925781 182.15625 122.460938 182.976562 120.984375 C 182.976562 120.984375 181.945312 122.691406 180.164062 125.382812 C 169.445312 140.339844 148.375 154.066406 145.722656 155.761719 C 153.550781 150.644531 170.621094 127.117188 174.296875 121.984375 C 174.550781 121.667969 174.789062 121.335938 175 120.984375 C 175 120.984375 174.753906 121.34375 174.296875 121.984375 C 171.058594 125.917969 164.574219 127.070312 157.886719 132.324219 C 150.664062 137.988281 146.945312 149.953125 146.945312 149.953125 C 149.339844 137.167969 160.949219 123.074219 160.949219 123.074219 C 146.960938 133.515625 133.246094 149.953125 133.246094 149.953125 L 137.703125 147.667969 L 133.246094 155.582031 L 136.507812 153.414062 L 133.917969 162.800781 L 136.507812 159.570312 L 133.917969 170.511719 L 127.496094 157.242188 C 127.496094 157.242188 125.273438 154.289062 121.960938 154.289062 C 118.601562 154.289062 114.125 157.320312 109.699219 169.511719 C 109.699219 169.511719 99.269531 152.863281 102.351562 129.734375 C 107.648438 89.976562 131.140625 79.632812 131.140625 79.632812 C 148.03125 68.925781 163.851562 65.421875 177.324219 65.421875 C 202.890625 65.421875 220.015625 78.039062 220.015625 78.039062 C 221.371094 78.132812 222.675781 78.179688 223.949219 78.179688 C 248.03125 78.179688 259.144531 62.296875 260.566406 60.097656 M 260.722656 59.84375 C 260.722656 59.84375 260.675781 59.933594 260.566406 60.097656 C 260.617188 60.011719 260.667969 59.933594 260.722656 59.84375 " fill-opacity="1" fill-rule="nonzero"/></g><path fill="#0a0b0c" d="M 195.109375 107.160156 C 195.726562 106.269531 196.132812 105.429688 196.230469 104.683594 L 195.109375 107.160156 " fill-opacity="1" fill-rule="nonzero"/><path fill="#0a0b0c" d="M 220.359375 87.1875 C 232.78125 102.773438 234.335938 132.917969 234.335938 132.917969 C 233.660156 126.554688 224.378906 102.300781 224.378906 102.300781 L 221.902344 120.191406 C 221.890625 117.410156 220.015625 97.523438 220.015625 97.523438 C 220.519531 130.925781 197.671875 147.84375 197.671875 147.84375 C 206.511719 131.183594 207.144531 105.863281 206.878906 93.902344 C 206.101562 109.675781 196.230469 126.953125 196.230469 126.953125 C 199.945312 120.191406 200.058594 109.167969 200.058594 109.167969 L 187.234375 124.566406 L 195.109375 107.160156 C 191.453125 112.417969 180.222656 119.398438 180.222656 119.398438 L 185.410156 111.445312 C 179.101562 113.429688 165.25 118.601562 165.25 118.601562 L 171.070312 109.167969 C 143.28125 118.8125 127.9375 147.84375 127.9375 147.84375 C 126.109375 132.148438 138.097656 97.128906 138.097656 97.128906 C 119.824219 112.238281 114.285156 130.925781 114.285156 130.925781 C 113.0625 110.398438 121.800781 92.027344 128.585938 81.066406 C 122.359375 85.042969 106.570312 98.046875 102.351562 129.734375 C 99.269531 152.863281 109.699219 169.511719 109.699219 169.511719 C 118.488281 145.296875 127.496094 157.242188 127.496094 157.242188 L 133.917969 170.511719 L 136.507812 159.570312 L 133.917969 162.800781 L 136.507812 153.414062 L 133.246094 155.582031 L 137.703125 147.667969 L 133.246094 149.953125 C 133.246094 149.953125 146.960938 133.515625 160.949219 123.074219 C 160.949219 123.074219 149.339844 137.167969 146.945312 149.953125 C 146.945312 149.953125 150.664062 137.988281 157.886719 132.324219 C 164.605469 127.042969 171.121094 125.902344 174.339844 121.914062 C 170.726562 126.964844 153.179688 151.1875 145.445312 155.9375 C 145.445312 155.9375 168.753906 141.332031 180.195312 125.335938 C 174.871094 133.394531 162.746094 150.421875 151.488281 156.863281 C 151.488281 156.863281 169.417969 153.121094 185.011719 137.105469 C 177.15625 146.886719 166.21875 161.148438 166.277344 164.738281 C 166.277344 164.738281 174.9375 153.199219 183.875 145.742188 C 192.808594 138.285156 197.871094 132.019531 202.042969 120.984375 C 202.042969 120.984375 198.230469 146.757812 181.371094 169.511719 C 181.371094 169.511719 213.175781 157.375 220.125 124.566406 C 220.125 124.566406 220.210938 148.699219 201.445312 167.503906 C 201.445312 167.503906 221.265625 159.167969 224.765625 126.65625 C 224.765625 126.65625 227.109375 148.761719 216.808594 165.746094 C 216.808594 165.746094 230.636719 147.53125 226.769531 120.984375 C 226.769531 120.984375 236.179688 142.140625 227.449219 171.132812 C 227.449219 171.132812 239.03125 162.34375 239.003906 129.339844 C 239.003906 129.339844 244.933594 141.6875 243.746094 170.511719 C 243.746094 170.511719 252.324219 128.457031 234.335938 106.824219 C 234.335938 106.824219 256.453125 127.625 258.839844 163.082031 C 258.839844 163.082031 259.664062 160.460938 260.464844 156.179688 C 261.402344 104.824219 220.359375 87.1875 220.359375 87.1875 " fill-opacity="1" fill-rule="nonzero"/><path fill="#0a0b0c" d="M 206.589844 87.1875 C 206.589844 87.1875 206.789062 89.734375 206.878906 93.902344 C 206.992188 91.609375 206.917969 89.351562 206.589844 87.1875 " fill-opacity="1" fill-rule="nonzero"/><g fill="#ffffff" fill-opacity="1"><g transform="translate(120.532511, 284.328908)"><g><path d="M 22.265625 0 L 21.09375 -14.671875 L 20.9375 -14.671875 L 15.875 -0.15625 L 12.515625 -0.15625 L 7.4375 -14.671875 L 7.296875 -14.671875 L 6.125 0 L 0.484375 0 L 2.703125 -24.75 L 8.703125 -24.75 L 14.1875 -10.46875 L 19.6875 -24.75 L 25.6875 -24.75 L 27.90625 0 Z M 22.265625 0 "/></g></g></g><g fill="#ffffff" fill-opacity="1"><g transform="translate(148.901485, 284.328908)"><g><path d="M 14.375 -24.75 L 24.359375 0 L 18.296875 0 L 16.46875 -4.953125 L 7.046875 -4.953125 L 5.21875 0 L -0.84375 0 L 9.15625 -24.75 Z M 14.546875 -9.90625 L 11.796875 -17.09375 L 11.734375 -17.09375 L 8.96875 -9.90625 Z M 14.546875 -9.90625 "/></g></g></g><g fill="#ffffff" fill-opacity="1"><g transform="translate(172.412352, 284.328908)"><g><path d="M 10.921875 -25.203125 C 12.265625 -25.203125 13.570312 -25.003906 14.84375 -24.609375 C 16.125 -24.222656 17.078125 -23.835938 17.703125 -23.453125 L 18.59375 -22.859375 L 16.3125 -18.359375 C 16.132812 -18.484375 15.882812 -18.640625 15.5625 -18.828125 C 15.25 -19.015625 14.648438 -19.265625 13.765625 -19.578125 C 12.890625 -19.898438 12.070312 -20.0625 11.3125 -20.0625 C 10.375 -20.0625 9.648438 -19.863281 9.140625 -19.46875 C 8.628906 -19.070312 8.375 -18.53125 8.375 -17.84375 C 8.375 -17.507812 8.492188 -17.195312 8.734375 -16.90625 C 8.972656 -16.613281 9.378906 -16.300781 9.953125 -15.96875 C 10.535156 -15.644531 11.046875 -15.378906 11.484375 -15.171875 C 11.929688 -14.972656 12.613281 -14.675781 13.53125 -14.28125 C 15.132812 -13.601562 16.5 -12.675781 17.625 -11.5 C 18.75 -10.332031 19.3125 -9.007812 19.3125 -7.53125 C 19.3125 -6.113281 19.054688 -4.875 18.546875 -3.8125 C 18.046875 -2.75 17.347656 -1.914062 16.453125 -1.3125 C 15.566406 -0.71875 14.582031 -0.273438 13.5 0.015625 C 12.414062 0.304688 11.242188 0.453125 9.984375 0.453125 C 8.910156 0.453125 7.851562 0.34375 6.8125 0.125 C 5.769531 -0.09375 4.898438 -0.367188 4.203125 -0.703125 C 3.503906 -1.035156 2.875 -1.359375 2.3125 -1.671875 C 1.75 -1.992188 1.335938 -2.265625 1.078125 -2.484375 L 0.6875 -2.8125 L 3.515625 -7.5625 C 3.753906 -7.363281 4.082031 -7.109375 4.5 -6.796875 C 4.914062 -6.484375 5.660156 -6.066406 6.734375 -5.546875 C 7.804688 -5.023438 8.75 -4.765625 9.5625 -4.765625 C 11.945312 -4.765625 13.140625 -5.578125 13.140625 -7.203125 C 13.140625 -7.535156 13.050781 -7.847656 12.875 -8.140625 C 12.707031 -8.429688 12.410156 -8.722656 11.984375 -9.015625 C 11.554688 -9.304688 11.175781 -9.535156 10.84375 -9.703125 C 10.507812 -9.867188 9.96875 -10.128906 9.21875 -10.484375 C 8.46875 -10.835938 7.914062 -11.101562 7.5625 -11.28125 C 6.0625 -12.019531 4.898438 -12.941406 4.078125 -14.046875 C 3.253906 -15.160156 2.84375 -16.359375 2.84375 -17.640625 C 2.84375 -19.859375 3.660156 -21.671875 5.296875 -23.078125 C 6.941406 -24.492188 8.816406 -25.203125 10.921875 -25.203125 Z M 10.921875 -25.203125 "/></g></g></g><g fill="#ffffff" fill-opacity="1"><g transform="translate(192.564526, 284.328908)"><g/></g></g><g fill="#ffffff" fill-opacity="1"><g transform="translate(200.751343, 284.328908)"><g><path d="M 15.953125 -24.75 L 15.953125 -19.796875 L 7.4375 -19.796875 L 7.4375 -14.875 L 15.59375 -14.875 L 15.59375 -9.9375 L 7.4375 -9.9375 L 7.4375 -4.953125 L 15.953125 -4.953125 L 15.953125 0 L 1.796875 0 L 1.796875 -24.75 Z M 15.953125 -24.75 "/></g></g></g><g fill="#ffffff" fill-opacity="1"><g transform="translate(218.144587, 284.328908)"><g><path d="M 12.5625 -24.75 L 12.5625 -6.984375 C 12.5625 -4.566406 11.894531 -2.722656 10.5625 -1.453125 C 9.238281 -0.179688 7.335938 0.453125 4.859375 0.453125 C 4.203125 0.453125 3.550781 0.367188 2.90625 0.203125 C 2.269531 0.046875 1.726562 -0.144531 1.28125 -0.375 C 0.84375 -0.601562 0.445312 -0.835938 0.09375 -1.078125 C -0.25 -1.316406 -0.5 -1.519531 -0.65625 -1.6875 L -0.9375 -1.921875 L 0.875 -6.625 C 2.050781 -5.507812 3.117188 -4.953125 4.078125 -4.953125 C 4.941406 -4.953125 5.632812 -5.234375 6.15625 -5.796875 C 6.675781 -6.367188 6.9375 -7.25 6.9375 -8.4375 L 6.9375 -24.75 Z M 12.5625 -24.75 "/></g></g></g><g fill="#ffffff" fill-opacity="1"><g transform="translate(232.209123, 284.328908)"><g><path d="M 14.375 -24.75 L 24.359375 0 L 18.296875 0 L 16.46875 -4.953125 L 7.046875 -4.953125 L 5.21875 0 L -0.84375 0 L 9.15625 -24.75 Z M 14.546875 -9.90625 L 11.796875 -17.09375 L 11.734375 -17.09375 L 8.96875 -9.90625 Z M 14.546875 -9.90625 "/></g></g></g></svg>